<svg width="40" height="45" viewBox="0 0 40 45" fill="none" xmlns="http://www.w3.org/2000/svg">
<path d="M33.3333 7.35938H6.66666C4.81666 7.35938 3.33333 9.01522 3.33333 11.039V33.117C3.33333 35.1409 4.81666 36.7967 6.66666 36.7967H33.3333C35.1667 36.7967 36.6667 35.1409 36.6667 33.117V11.039C36.6667 9.01522 35.1833 7.35938 33.3333 7.35938ZM33.3333 33.117H6.66666V14.7187H33.3333V33.117ZM20 29.4374C20 28.4255 20.75 27.5975 21.6667 27.5975H28.3333C29.25 27.5975 30 28.4255 30 29.4374C30 30.4493 29.25 31.2772 28.3333 31.2772H21.6667C20.75 31.2772 20 30.4493 20 29.4374ZM11.3167 17.8648C11.9667 17.1473 13.0167 17.1473 13.6667 17.8648L17.9833 22.63C18.6333 23.3475 18.6333 24.5066 17.9833 25.2242L13.6667 29.9893C13.0167 30.7069 11.9667 30.7069 11.3167 29.9893C10.6667 29.2718 10.6667 28.1127 11.3167 27.3952L14.45 23.9179L11.3167 20.459C10.6667 19.7415 10.6667 18.5824 11.3167 17.8648Z" fill="#AD2D44"/>
</svg>
