<svg width="250" height="77" viewBox="0 0 250 77" fill="none" xmlns="http://www.w3.org/2000/svg">
<path d="M25.2219 11.5329V32.6129H21.5419V11.5329H25.2219ZM23.3419 1.41291C24.1153 1.41291 24.7419 1.65291 25.2219 2.13291C25.7019 2.61291 25.9419 3.21291 25.9419 3.93291C25.9419 4.65291 25.7019 5.25291 25.2219 5.73291C24.7419 6.18625 24.1153 6.41291 23.3419 6.41291C22.5953 6.41291 21.9819 6.18625 21.5019 5.73291C21.0219 5.25291 20.7819 4.65291 20.7819 3.93291C20.7819 3.21291 21.0219 2.61291 21.5019 2.13291C21.9819 1.65291 22.5953 1.41291 23.3419 1.41291ZM38.551 11.0529C39.991 11.0529 41.2843 11.2529 42.431 11.6529C43.5777 12.0529 44.671 12.6529 45.711 13.4529L44.151 15.7729C43.191 15.1596 42.271 14.7062 41.391 14.4129C40.5377 14.1196 39.631 13.9729 38.671 13.9729C37.471 13.9729 36.5243 14.2262 35.831 14.7329C35.1377 15.2129 34.791 15.8796 34.791 16.7329C34.791 17.5862 35.111 18.2529 35.751 18.7329C36.4177 19.2129 37.6043 19.6796 39.311 20.1329C41.6577 20.7196 43.4043 21.5196 44.551 22.5329C45.7243 23.5462 46.311 24.9329 46.311 26.6929C46.311 28.7729 45.4977 30.3596 43.871 31.4529C42.271 32.5462 40.311 33.0929 37.991 33.0929C34.791 33.0929 32.1377 32.1729 30.031 30.3329L31.991 28.0929C33.7777 29.4529 35.751 30.1329 37.911 30.1329C39.2977 30.1329 40.391 29.8529 41.191 29.2929C42.0177 28.7062 42.431 27.9196 42.431 26.9329C42.431 26.2129 42.2843 25.6396 41.991 25.2129C41.6977 24.7596 41.191 24.3729 40.471 24.0529C39.751 23.7062 38.6977 23.3462 37.311 22.9729C35.071 22.3862 33.4443 21.5996 32.431 20.6129C31.4443 19.6262 30.951 18.3729 30.951 16.8529C30.951 15.7596 31.271 14.7729 31.911 13.8929C32.5777 12.9862 33.4843 12.2929 34.631 11.8129C35.8043 11.3062 37.111 11.0529 38.551 11.0529ZM65.3123 27.6929C65.3123 28.5462 65.4589 29.1862 65.7523 29.6129C66.0456 30.0129 66.4856 30.3196 67.0723 30.5329L66.2323 33.0929C65.1389 32.9596 64.2589 32.6529 63.5923 32.1729C62.9256 31.6929 62.4323 30.9462 62.1123 29.9329C60.6989 32.0396 58.6056 33.0929 55.8323 33.0929C53.7523 33.0929 52.1123 32.5062 50.9123 31.3329C49.7123 30.1596 49.1123 28.6262 49.1123 26.7329C49.1123 24.4929 49.9123 22.7729 51.5123 21.5729C53.1389 20.3729 55.4323 19.7729 58.3923 19.7729H61.6323V18.2129C61.6323 16.7196 61.2723 15.6529 60.5523 15.0129C59.8323 14.3729 58.7256 14.0529 57.2323 14.0529C55.6856 14.0529 53.7923 14.4262 51.5523 15.1729L50.6323 12.4929C53.2456 11.5329 55.6723 11.0529 57.9123 11.0529C60.3923 11.0529 62.2456 11.6662 63.4723 12.8929C64.6989 14.0929 65.3123 15.8129 65.3123 18.0529V27.6929ZM56.6723 30.3329C58.7789 30.3329 60.4323 29.2396 61.6323 27.0529V22.2129H58.8723C54.9789 22.2129 53.0323 23.6529 53.0323 26.5329C53.0323 27.7862 53.3389 28.7329 53.9523 29.3729C54.5656 30.0129 55.4723 30.3329 56.6723 30.3329ZM82.5101 11.0529C84.9101 11.0529 86.8167 12.0262 88.2301 13.9729C89.6434 15.8929 90.3501 18.5862 90.3501 22.0529C90.3501 24.2396 90.0167 26.1729 89.3501 27.8529C88.6834 29.5062 87.7234 30.7996 86.4701 31.7329C85.2167 32.6396 83.7501 33.0929 82.0701 33.0929C79.8567 33.0929 77.9901 32.1596 76.4701 30.2929L76.1101 32.6129H72.8701V3.05291L76.5501 2.61291V14.1729C78.0701 12.0929 80.0567 11.0529 82.5101 11.0529ZM81.1901 30.1729C82.8167 30.1729 84.0834 29.5196 84.9901 28.2129C85.9234 26.8796 86.3901 24.8262 86.3901 22.0529C86.3901 19.1996 85.9634 17.1462 85.1101 15.8929C84.2567 14.6129 83.0434 13.9729 81.4701 13.9729C79.6034 13.9729 77.9634 15.0662 76.5501 17.2529V27.3329C77.1101 28.2129 77.7901 28.9062 78.5901 29.4129C79.4167 29.9196 80.2834 30.1729 81.1901 30.1729ZM112.54 21.4529C112.54 22.0662 112.513 22.6929 112.46 23.3329H99.0201C99.1801 25.6529 99.7667 27.3596 100.78 28.4529C101.793 29.5462 103.1 30.0929 104.7 30.0929C105.713 30.0929 106.647 29.9462 107.5 29.6529C108.353 29.3596 109.247 28.8929 110.18 28.2529L111.78 30.4529C109.54 32.2129 107.087 33.0929 104.42 33.0929C101.487 33.0929 99.1934 32.1329 97.5401 30.2129C95.9134 28.2929 95.1001 25.6529 95.1001 22.2929C95.1001 20.1062 95.4467 18.1729 96.1401 16.4929C96.8601 14.7862 97.8734 13.4529 99.1801 12.4929C100.513 11.5329 102.073 11.0529 103.86 11.0529C106.66 11.0529 108.807 11.9729 110.3 13.8129C111.793 15.6529 112.54 18.1996 112.54 21.4529ZM108.9 20.3729C108.9 18.2929 108.487 16.7062 107.66 15.6129C106.833 14.5196 105.593 13.9729 103.94 13.9729C100.927 13.9729 99.2867 16.1862 99.0201 20.6129H108.9V20.3729ZM122.617 33.0929C121.257 33.0929 120.177 32.6929 119.377 31.8929C118.604 31.0662 118.217 29.9196 118.217 28.4529V3.05291L121.897 2.61291V28.3729C121.897 28.9596 121.99 29.3862 122.177 29.6529C122.39 29.9196 122.737 30.0529 123.217 30.0529C123.724 30.0529 124.177 29.9729 124.577 29.8129L125.537 32.3729C124.657 32.8529 123.684 33.0929 122.617 33.0929ZM144.14 27.6929C144.14 28.5462 144.287 29.1862 144.58 29.6129C144.874 30.0129 145.314 30.3196 145.9 30.5329L145.06 33.0929C143.967 32.9596 143.087 32.6529 142.42 32.1729C141.754 31.6929 141.26 30.9462 140.94 29.9329C139.527 32.0396 137.434 33.0929 134.66 33.0929C132.58 33.0929 130.94 32.5062 129.74 31.3329C128.54 30.1596 127.94 28.6262 127.94 26.7329C127.94 24.4929 128.74 22.7729 130.34 21.5729C131.967 20.3729 134.26 19.7729 137.22 19.7729H140.46V18.2129C140.46 16.7196 140.1 15.6529 139.38 15.0129C138.66 14.3729 137.554 14.0529 136.06 14.0529C134.514 14.0529 132.62 14.4262 130.38 15.1729L129.46 12.4929C132.074 11.5329 134.5 11.0529 136.74 11.0529C139.22 11.0529 141.074 11.6662 142.3 12.8929C143.527 14.0929 144.14 15.8129 144.14 18.0529V27.6929ZM135.5 30.3329C137.607 30.3329 139.26 29.2396 140.46 27.0529V22.2129H137.7C133.807 22.2129 131.86 23.6529 131.86 26.5329C131.86 27.7862 132.167 28.7329 132.78 29.3729C133.394 30.0129 134.3 30.3329 135.5 30.3329ZM35.7419 62.6929C35.7419 63.5462 35.8886 64.1862 36.1819 64.6129C36.4753 65.0129 36.9153 65.3196 37.5019 65.5329L36.6619 68.0929C35.5686 67.9596 34.6886 67.6529 34.0219 67.1729C33.3553 66.6929 32.8619 65.9462 32.5419 64.9329C31.1286 67.0396 29.0353 68.0929 26.2619 68.0929C24.1819 68.0929 22.5419 67.5062 21.3419 66.3329C20.1419 65.1596 19.5419 63.6262 19.5419 61.7329C19.5419 59.4929 20.3419 57.7729 21.9419 56.5729C23.5686 55.3729 25.8619 54.7729 28.8219 54.7729H32.0619V53.2129C32.0619 51.7196 31.7019 50.6529 30.9819 50.0129C30.2619 49.3729 29.1553 49.0529 27.6619 49.0529C26.1153 49.0529 24.2219 49.4262 21.9819 50.1729L21.0619 47.4929C23.6753 46.5329 26.1019 46.0529 28.3419 46.0529C30.8219 46.0529 32.6753 46.6662 33.9019 47.8929C35.1286 49.0929 35.7419 50.8129 35.7419 53.0529V62.6929ZM27.1019 65.3329C29.2086 65.3329 30.8619 64.2396 32.0619 62.0529V57.2129H29.3019C25.4086 57.2129 23.4619 58.6529 23.4619 61.5329C23.4619 62.7862 23.7686 63.7329 24.3819 64.3729C24.9953 65.0129 25.9019 65.3329 27.1019 65.3329ZM59.6198 46.5329V76.1329L55.9398 75.6929V64.8129C55.2464 65.8529 54.3798 66.6662 53.3398 67.2529C52.3264 67.8129 51.1931 68.0929 49.9398 68.0929C47.4331 68.0929 45.4731 67.1062 44.0598 65.1329C42.6731 63.1596 41.9798 60.5062 41.9798 57.1729C41.9798 55.0129 42.3131 53.0929 42.9798 51.4129C43.6464 49.7329 44.6064 48.4262 45.8598 47.4929C47.1131 46.5329 48.5798 46.0529 50.2598 46.0529C52.4998 46.0529 54.4731 46.9996 56.1798 48.8929L56.4598 46.5329H59.6198ZM50.7398 65.1729C51.8598 65.1729 52.8198 64.9196 53.6198 64.4129C54.4198 63.8796 55.1931 63.0929 55.9398 62.0529V51.7329C55.2464 50.8262 54.4998 50.1462 53.6998 49.6929C52.9264 49.2129 52.0464 48.9729 51.0598 48.9729C49.4331 48.9729 48.1664 49.6529 47.2598 51.0129C46.3798 52.3729 45.9398 54.3996 45.9398 57.0929C45.9398 59.8129 46.3531 61.8396 47.1798 63.1729C48.0064 64.5062 49.1931 65.1729 50.7398 65.1729ZM82.886 67.6129H79.726L79.446 64.3329C78.646 65.6396 77.726 66.5996 76.686 67.2129C75.646 67.7996 74.3793 68.0929 72.886 68.0929C71.046 68.0929 69.606 67.5329 68.566 66.4129C67.526 65.2929 67.006 63.7062 67.006 61.6529V46.5329H70.686V61.2529C70.686 62.6929 70.9393 63.7196 71.446 64.3329C71.9527 64.9196 72.7793 65.2129 73.926 65.2129C75.9793 65.2129 77.7393 63.9996 79.206 61.5729V46.5329H82.886V67.6129ZM94.1673 46.5329V67.6129H90.4873V46.5329H94.1673ZM92.2873 36.4129C93.0606 36.4129 93.6873 36.6529 94.1673 37.1329C94.6473 37.6129 94.8873 38.2129 94.8873 38.9329C94.8873 39.6529 94.6473 40.2529 94.1673 40.7329C93.6873 41.1862 93.0606 41.4129 92.2873 41.4129C91.5406 41.4129 90.9273 41.1862 90.4473 40.7329C89.9673 40.2529 89.7273 39.6529 89.7273 38.9329C89.7273 38.2129 89.9673 37.6129 90.4473 37.1329C90.9273 36.6529 91.5406 36.4129 92.2873 36.4129ZM111.696 46.0529C113.616 46.0529 115.11 46.6262 116.176 47.7729C117.27 48.9196 117.816 50.4929 117.816 52.4929V67.6129H114.136V53.0129C114.136 51.5196 113.856 50.4662 113.296 49.8529C112.736 49.2396 111.91 48.9329 110.816 48.9329C109.696 48.9329 108.71 49.2529 107.856 49.8929C107.003 50.5329 106.203 51.4529 105.456 52.6529V67.6129H101.776V46.5329H104.936L105.256 49.6529C106.003 48.5329 106.923 47.6529 108.016 47.0129C109.136 46.3729 110.363 46.0529 111.696 46.0529ZM133.134 46.0529C136.094 46.0529 138.387 47.0396 140.014 49.0129C141.667 50.9862 142.494 53.6662 142.494 57.0529C142.494 59.2396 142.12 61.1729 141.374 62.8529C140.627 64.5062 139.547 65.7996 138.134 66.7329C136.72 67.6396 135.04 68.0929 133.094 68.0929C130.134 68.0929 127.827 67.1062 126.174 65.1329C124.52 63.1596 123.694 60.4796 123.694 57.0929C123.694 54.9062 124.067 52.9862 124.814 51.3329C125.56 49.6529 126.64 48.3596 128.054 47.4529C129.467 46.5196 131.16 46.0529 133.134 46.0529ZM133.134 49.0129C129.48 49.0129 127.654 51.7062 127.654 57.0929C127.654 62.4529 129.467 65.1329 133.094 65.1329C136.72 65.1329 138.534 62.4396 138.534 57.0529C138.534 51.6929 136.734 49.0129 133.134 49.0129Z" fill="#FAFAFA"/>
<line x1="2" x2="2" y2="74.1936" stroke="#AD2D44" stroke-width="4"/>
</svg>
