<svg width="40" height="40" viewBox="0 0 40 40" fill="none" xmlns="http://www.w3.org/2000/svg">
<g clip-path="url(#clip0_4_301)">
<path d="M27.0667 18.1834L29.6833 15.5667L23.4333 9.31674L20.8167 11.9334L13.9167 5.05007C12.6167 3.75007 10.5 3.75007 9.2 5.05007L6.03333 8.21674C4.73333 9.51674 4.73333 11.6334 6.03333 12.9334L12.9167 19.8167L5.25 27.5001C5.08333 27.6667 5 27.8667 5 28.1001V33.1667C5 33.6334 5.36667 34.0001 5.83333 34.0001H10.9C11.1167 34.0001 11.3333 33.9167 11.4833 33.7501L19.1833 26.0501L26.0667 32.9334C28.2667 35.1334 30.6667 33.0501 30.7833 32.9334L33.95 29.7667C35.25 28.4667 35.25 26.3501 33.95 25.0501L27.0667 18.1834ZM15.3 17.4501L8.4 10.5667L11.55 7.40007L13.6667 9.51674L12.8833 10.3334C12.2333 10.9834 12.2333 12.0334 12.8833 12.6834C13.5333 13.3334 14.5833 13.3334 15.2333 12.6834L16.0333 11.8834L18.45 14.3001L15.3 17.4501ZM28.4333 30.6001L21.55 23.7167L24.7167 20.5501L27.1333 22.9667L26.3333 23.7667C25.6833 24.4167 25.6833 25.4667 26.3333 26.1167C26.9833 26.7667 28.0333 26.7667 28.6833 26.1167L29.4833 25.3167L31.6 27.4334L28.4333 30.6001Z" fill="#AD2D44"/>
<path d="M34.5167 11.7334C35.1667 11.0834 35.1667 10.0334 34.5167 9.38344L30.6167 5.48344C29.8333 4.70011 28.75 5.00011 28.2667 5.48344L25.2167 8.53344L31.4667 14.7834L34.5167 11.7334Z" fill="#AD2D44"/>
</g>
<defs>
<clipPath id="clip0_4_301">
<rect width="40" height="40" fill="white"/>
</clipPath>
</defs>
</svg>
